<svg width="48" height="40" viewBox="0 0 48 40" fill="none" xmlns="http://www.w3.org/2000/svg">
<path d="M18 21H21V15H27V21H30V12L24 7.5L18 12V21ZM16 23V11L24 5L32 11V23H25V17H23V23H16Z" fill="#333333"/>
<path d="M13.5522 38V32.1818H14.2567V34.7727H17.359V32.1818H18.0636V38H17.359V35.3977H14.2567V38H13.5522ZM21.1559 38.0909C20.762 38.0909 20.4163 37.9972 20.119 37.8097C19.8235 37.6222 19.5924 37.3598 19.4258 37.0227C19.261 36.6856 19.1786 36.2917 19.1786 35.8409C19.1786 35.3864 19.261 34.9896 19.4258 34.6506C19.5924 34.3116 19.8235 34.0483 20.119 33.8608C20.4163 33.6733 20.762 33.5795 21.1559 33.5795C21.5498 33.5795 21.8945 33.6733 22.19 33.8608C22.4873 34.0483 22.7184 34.3116 22.8832 34.6506C23.0498 34.9896 23.1332 35.3864 23.1332 35.8409C23.1332 36.2917 23.0498 36.6856 22.8832 37.0227C22.7184 37.3598 22.4873 37.6222 22.19 37.8097C21.8945 37.9972 21.5498 38.0909 21.1559 38.0909ZM21.1559 37.4886C21.4551 37.4886 21.7013 37.4119 21.8945 37.2585C22.0877 37.1051 22.2307 36.9034 22.3235 36.6534C22.4163 36.4034 22.4627 36.1326 22.4627 35.8409C22.4627 35.5492 22.4163 35.2775 22.3235 35.0256C22.2307 34.7737 22.0877 34.5701 21.8945 34.4148C21.7013 34.2595 21.4551 34.1818 21.1559 34.1818C20.8567 34.1818 20.6104 34.2595 20.4173 34.4148C20.2241 34.5701 20.0811 34.7737 19.9883 35.0256C19.8955 35.2775 19.8491 35.5492 19.8491 35.8409C19.8491 36.1326 19.8955 36.4034 19.9883 36.6534C20.0811 36.9034 20.2241 37.1051 20.4173 37.2585C20.6104 37.4119 20.8567 37.4886 21.1559 37.4886ZM24.1566 38V33.6364H24.8043V34.3182H24.8612C24.9521 34.0852 25.0988 33.9044 25.3015 33.7756C25.5041 33.6449 25.7475 33.5795 26.0316 33.5795C26.3195 33.5795 26.5591 33.6449 26.7504 33.7756C26.9435 33.9044 27.0941 34.0852 27.2021 34.3182H27.2475C27.3593 34.0928 27.5269 33.9138 27.7504 33.7812C27.9738 33.6468 28.2418 33.5795 28.5543 33.5795C28.9445 33.5795 29.2636 33.7017 29.5117 33.946C29.7598 34.1884 29.8839 34.5663 29.8839 35.0795V38H29.2134V35.0795C29.2134 34.7576 29.1254 34.5275 28.9492 34.3892C28.7731 34.2509 28.5657 34.1818 28.3271 34.1818C28.0202 34.1818 27.7826 34.2746 27.614 34.4602C27.4454 34.6439 27.3612 34.8769 27.3612 35.1591V38H26.6793V35.0114C26.6793 34.7633 26.5988 34.5634 26.4379 34.4119C26.2769 34.2585 26.0695 34.1818 25.8157 34.1818C25.6415 34.1818 25.4786 34.2282 25.3271 34.321C25.1774 34.4138 25.0562 34.5426 24.9634 34.7074C24.8725 34.8703 24.8271 35.0587 24.8271 35.2727V38H24.1566ZM32.9393 38.0909C32.5188 38.0909 32.1561 37.9981 31.8512 37.8125C31.5482 37.625 31.3143 37.3636 31.1495 37.0284C30.9866 36.6913 30.9052 36.2992 30.9052 35.8523C30.9052 35.4053 30.9866 35.0114 31.1495 34.6705C31.3143 34.3277 31.5434 34.0606 31.837 33.8693C32.1325 33.6761 32.4772 33.5795 32.8711 33.5795C33.0984 33.5795 33.3228 33.6174 33.5444 33.6932C33.766 33.7689 33.9677 33.892 34.1495 34.0625C34.3313 34.2311 34.4762 34.4545 34.5842 34.733C34.6921 35.0114 34.7461 35.3542 34.7461 35.7614V36.0455H31.3825V35.4659H34.0643C34.0643 35.2197 34.015 35 33.9165 34.8068C33.82 34.6136 33.6817 34.4612 33.5018 34.3494C33.3237 34.2377 33.1135 34.1818 32.8711 34.1818C32.604 34.1818 32.373 34.2481 32.1779 34.3807C31.9847 34.5114 31.8361 34.6818 31.7319 34.892C31.6277 35.1023 31.5756 35.3277 31.5756 35.5682V35.9545C31.5756 36.2841 31.6325 36.5634 31.7461 36.7926C31.8616 37.0199 32.0217 37.1932 32.2262 37.3125C32.4308 37.4299 32.6684 37.4886 32.9393 37.4886C33.1154 37.4886 33.2745 37.464 33.4165 37.4148C33.5605 37.3636 33.6845 37.2879 33.7887 37.1875C33.8929 37.0852 33.9734 36.9583 34.0302 36.8068L34.6779 36.9886C34.6097 37.2083 34.4951 37.4015 34.3342 37.5682C34.1732 37.733 33.9743 37.8617 33.7376 37.9545C33.5008 38.0455 33.2347 38.0909 32.9393 38.0909Z" fill="#333333"/>
</svg>
