<svg width="48" height="40" viewBox="0 0 48 40" fill="none" xmlns="http://www.w3.org/2000/svg">
<path d="M24 23V21H31V7H24V5H31C31.55 5 32.0208 5.19583 32.4125 5.5875C32.8042 5.97917 33 6.45 33 7V21C33 21.55 32.8042 22.0208 32.4125 22.4125C32.0208 22.8042 31.55 23 31 23H24ZM22 19L20.625 17.55L23.175 15H15V13H23.175L20.625 10.45L22 9L27 14L22 19Z" fill="#333333"/>
<path d="M14.3413 38V32.1818H15.0458V37.375H17.7504V38H14.3413ZM20.5231 38.0909C20.1291 38.0909 19.7835 37.9972 19.4862 37.8097C19.1907 37.6222 18.9596 37.3598 18.793 37.0227C18.6282 36.6856 18.5458 36.2917 18.5458 35.8409C18.5458 35.3864 18.6282 34.9896 18.793 34.6506C18.9596 34.3116 19.1907 34.0483 19.4862 33.8608C19.7835 33.6733 20.1291 33.5795 20.5231 33.5795C20.917 33.5795 21.2617 33.6733 21.5572 33.8608C21.8545 34.0483 22.0856 34.3116 22.2504 34.6506C22.417 34.9896 22.5004 35.3864 22.5004 35.8409C22.5004 36.2917 22.417 36.6856 22.2504 37.0227C22.0856 37.3598 21.8545 37.6222 21.5572 37.8097C21.2617 37.9972 20.917 38.0909 20.5231 38.0909ZM20.5231 37.4886C20.8223 37.4886 21.0685 37.4119 21.2617 37.2585C21.4549 37.1051 21.5979 36.9034 21.6907 36.6534C21.7835 36.4034 21.8299 36.1326 21.8299 35.8409C21.8299 35.5492 21.7835 35.2775 21.6907 35.0256C21.5979 34.7737 21.4549 34.5701 21.2617 34.4148C21.0685 34.2595 20.8223 34.1818 20.5231 34.1818C20.2238 34.1818 19.9776 34.2595 19.7844 34.4148C19.5913 34.5701 19.4483 34.7737 19.3555 35.0256C19.2627 35.2775 19.2163 35.5492 19.2163 35.8409C19.2163 36.1326 19.2627 36.4034 19.3555 36.6534C19.4483 36.9034 19.5913 37.1051 19.7844 37.2585C19.9776 37.4119 20.2238 37.4886 20.5231 37.4886ZM25.2852 39.7273C24.9613 39.7273 24.6829 39.6856 24.4499 39.6023C24.217 39.5208 24.0228 39.4129 23.8675 39.2784C23.7141 39.1458 23.592 39.0038 23.5011 38.8523L24.0352 38.4773C24.0958 38.5568 24.1725 38.6477 24.2653 38.75C24.3581 38.8542 24.485 38.9441 24.646 39.0199C24.8088 39.0975 25.0219 39.1364 25.2852 39.1364C25.6374 39.1364 25.9281 39.0511 26.1573 38.8807C26.3865 38.7102 26.5011 38.4432 26.5011 38.0795V37.1932H26.4442C26.395 37.2727 26.3249 37.3712 26.234 37.4886C26.145 37.6042 26.0162 37.7074 25.8477 37.7983C25.681 37.8873 25.4556 37.9318 25.1715 37.9318C24.8192 37.9318 24.503 37.8485 24.2227 37.6818C23.9442 37.5152 23.7236 37.2727 23.5607 36.9545C23.3997 36.6364 23.3192 36.25 23.3192 35.7955C23.3192 35.3485 23.3978 34.9593 23.555 34.6278C23.7122 34.2945 23.931 34.0369 24.2113 33.8551C24.4916 33.6714 24.8155 33.5795 25.1829 33.5795C25.467 33.5795 25.6924 33.6269 25.859 33.7216C26.0276 33.8144 26.1564 33.9205 26.2454 34.0398C26.3363 34.1572 26.4064 34.2538 26.4556 34.3295H26.5238V33.6364H27.1715V38.125C27.1715 38.5 27.0863 38.8049 26.9158 39.0398C26.7473 39.2765 26.52 39.4498 26.234 39.5597C25.9499 39.6714 25.6336 39.7273 25.2852 39.7273ZM25.2624 37.3295C25.5314 37.3295 25.7586 37.268 25.9442 37.1449C26.1299 37.0218 26.271 36.8447 26.3675 36.6136C26.4641 36.3826 26.5124 36.1061 26.5124 35.7841C26.5124 35.4697 26.4651 35.1922 26.3704 34.9517C26.2757 34.7112 26.1355 34.5227 25.9499 34.3864C25.7643 34.25 25.5352 34.1818 25.2624 34.1818C24.9783 34.1818 24.7416 34.2538 24.5522 34.3977C24.3647 34.5417 24.2236 34.7348 24.1289 34.9773C24.0361 35.2197 23.9897 35.4886 23.9897 35.7841C23.9897 36.0871 24.0371 36.3551 24.1317 36.5881C24.2283 36.8191 24.3704 37.0009 24.5579 37.1335C24.7473 37.2642 24.9821 37.3295 25.2624 37.3295ZM28.3988 38V33.6364H29.0692V38H28.3988ZM28.7397 32.9091C28.609 32.9091 28.4963 32.8646 28.4016 32.7756C28.3088 32.6866 28.2624 32.5795 28.2624 32.4545C28.2624 32.3295 28.3088 32.2225 28.4016 32.1335C28.4963 32.0445 28.609 32 28.7397 32C28.8704 32 28.9821 32.0445 29.0749 32.1335C29.1696 32.2225 29.217 32.3295 29.217 32.4545C29.217 32.5795 29.1696 32.6866 29.0749 32.7756C28.9821 32.8646 28.8704 32.9091 28.7397 32.9091ZM30.9677 35.375V38H30.2972V33.6364H30.945V34.3182H31.0018C31.104 34.0966 31.2594 33.9186 31.4677 33.7841C31.676 33.6477 31.945 33.5795 32.2745 33.5795C32.57 33.5795 32.8285 33.6402 33.0501 33.7614C33.2717 33.8807 33.444 34.0625 33.5671 34.3068C33.6902 34.5492 33.7518 34.8561 33.7518 35.2273V38H33.0813V35.2727C33.0813 34.9299 32.9923 34.6629 32.8143 34.4716C32.6362 34.2784 32.3919 34.1818 32.0813 34.1818C31.8673 34.1818 31.676 34.2282 31.5075 34.321C31.3408 34.4138 31.2092 34.5492 31.1126 34.7273C31.016 34.9053 30.9677 35.1212 30.9677 35.375Z" fill="#333333"/>
</svg>
