<svg xmlns="http://www.w3.org/2000/svg" width="24" height="24" viewBox="0 0 24 24" fill="none">
<path d="M18.15 7.24413C18.15 6.3007 17.295 5.52881 16.25 5.52881H13.4V7.24413H16.25V9.51693L12.944 13.2478H9.6V8.95945H5.8C3.7005 8.95945 2 10.4947 2 12.3901V14.9631H3.9C3.9 16.3868 5.173 17.5361 6.75 17.5361C8.327 17.5361 9.6 16.3868 9.6 14.9631H13.856L18.15 10.1173V7.24413ZM6.75 15.8207C6.2275 15.8207 5.8 15.4348 5.8 14.9631H7.7C7.7 15.4348 7.2725 15.8207 6.75 15.8207Z" fill="#333333"/>
<path d="M9.59987 6.38644H4.84985V8.10174H9.59987V6.38644Z" fill="#333333"/>
<path d="M18.15 12.3901C16.573 12.3901 15.3 13.5393 15.3 14.963C15.3 16.3868 16.573 17.536 18.15 17.536C19.7271 17.536 21.0001 16.3868 21.0001 14.963C21.0001 13.5393 19.7271 12.3901 18.15 12.3901ZM18.15 15.8207C17.6275 15.8207 17.2 15.4348 17.2 14.963C17.2 14.4913 17.6275 14.1054 18.15 14.1054C18.6725 14.1054 19.1 14.4913 19.1 14.963C19.1 15.4348 18.6725 15.8207 18.15 15.8207Z" fill="#333333"/>
</svg>