<svg width="48" height="40" viewBox="0 0 48 40" fill="none" xmlns="http://www.w3.org/2000/svg">
<path d="M26 11.9V10.2C26.55 9.96667 27.1125 9.79167 27.6875 9.675C28.2625 9.55833 28.8667 9.5 29.5 9.5C29.9333 9.5 30.3583 9.53333 30.775 9.6C31.1917 9.66667 31.6 9.75 32 9.85V11.45C31.6 11.3 31.1958 11.1875 30.7875 11.1125C30.3792 11.0375 29.95 11 29.5 11C28.8667 11 28.2583 11.0792 27.675 11.2375C27.0917 11.3958 26.5333 11.6167 26 11.9ZM26 17.4V15.7C26.55 15.4667 27.1125 15.2917 27.6875 15.175C28.2625 15.0583 28.8667 15 29.5 15C29.9333 15 30.3583 15.0333 30.775 15.1C31.1917 15.1667 31.6 15.25 32 15.35V16.95C31.6 16.8 31.1958 16.6875 30.7875 16.6125C30.3792 16.5375 29.95 16.5 29.5 16.5C28.8667 16.5 28.2583 16.575 27.675 16.725C27.0917 16.875 26.5333 17.1 26 17.4ZM26 14.65V12.95C26.55 12.7167 27.1125 12.5417 27.6875 12.425C28.2625 12.3083 28.8667 12.25 29.5 12.25C29.9333 12.25 30.3583 12.2833 30.775 12.35C31.1917 12.4167 31.6 12.5 32 12.6V14.2C31.6 14.05 31.1958 13.9375 30.7875 13.8625C30.3792 13.7875 29.95 13.75 29.5 13.75C28.8667 13.75 28.2583 13.8292 27.675 13.9875C27.0917 14.1458 26.5333 14.3667 26 14.65ZM18.5 18C19.2833 18 20.0458 18.0875 20.7875 18.2625C21.5292 18.4375 22.2667 18.7 23 19.05V9.2C22.3167 8.8 21.5917 8.5 20.825 8.3C20.0583 8.1 19.2833 8 18.5 8C17.9 8 17.3042 8.05833 16.7125 8.175C16.1208 8.29167 15.55 8.46667 15 8.7V18.6C15.5833 18.4 16.1625 18.25 16.7375 18.15C17.3125 18.05 17.9 18 18.5 18ZM25 19.05C25.7333 18.7 26.4708 18.4375 27.2125 18.2625C27.9542 18.0875 28.7167 18 29.5 18C30.1 18 30.6875 18.05 31.2625 18.15C31.8375 18.25 32.4167 18.4 33 18.6V8.7C32.45 8.46667 31.8792 8.29167 31.2875 8.175C30.6958 8.05833 30.1 8 29.5 8C28.7167 8 27.9417 8.1 27.175 8.3C26.4083 8.5 25.6833 8.8 25 9.2V19.05ZM24 22C23.2 21.3667 22.3333 20.875 21.4 20.525C20.4667 20.175 19.5 20 18.5 20C17.8 20 17.1125 20.0917 16.4375 20.275C15.7625 20.4583 15.1167 20.7167 14.5 21.05C14.15 21.2333 13.8125 21.225 13.4875 21.025C13.1625 20.825 13 20.5333 13 20.15V8.1C13 7.91667 13.0458 7.74167 13.1375 7.575C13.2292 7.40833 13.3667 7.28333 13.55 7.2C14.3167 6.8 15.1167 6.5 15.95 6.3C16.7833 6.1 17.6333 6 18.5 6C19.4667 6 20.4125 6.125 21.3375 6.375C22.2625 6.625 23.15 7 24 7.5C24.85 7 25.7375 6.625 26.6625 6.375C27.5875 6.125 28.5333 6 29.5 6C30.3667 6 31.2167 6.1 32.05 6.3C32.8833 6.5 33.6833 6.8 34.45 7.2C34.6333 7.28333 34.7708 7.40833 34.8625 7.575C34.9542 7.74167 35 7.91667 35 8.1V20.15C35 20.5333 34.8375 20.825 34.5125 21.025C34.1875 21.225 33.85 21.2333 33.5 21.05C32.8833 20.7167 32.2375 20.4583 31.5625 20.275C30.8875 20.0917 30.2 20 29.5 20C28.5 20 27.5333 20.175 26.6 20.525C25.6667 20.875 24.8 21.3667 24 22Z" fill="#333333"/>
<path d="M14.1538 32.1818H14.9947L16.9719 37.0114H17.0401L19.0174 32.1818H19.8583V38H19.1992V33.5795H19.1424L17.3242 38H16.6879L14.8697 33.5795H14.8129V38H14.1538V32.1818ZM23.0096 38.0909C22.5891 38.0909 22.2264 37.9981 21.9215 37.8125C21.6185 37.625 21.3846 37.3636 21.2198 37.0284C21.0569 36.6913 20.9755 36.2992 20.9755 35.8523C20.9755 35.4053 21.0569 35.0114 21.2198 34.6705C21.3846 34.3277 21.6138 34.0606 21.9073 33.8693C22.2028 33.6761 22.5475 33.5795 22.9414 33.5795C23.1687 33.5795 23.3931 33.6174 23.6147 33.6932C23.8363 33.7689 24.038 33.892 24.2198 34.0625C24.4016 34.2311 24.5465 34.4545 24.6545 34.733C24.7624 35.0114 24.8164 35.3542 24.8164 35.7614V36.0455H21.4528V35.4659H24.1346C24.1346 35.2197 24.0853 35 23.9869 34.8068C23.8903 34.6136 23.752 34.4612 23.5721 34.3494C23.3941 34.2377 23.1838 34.1818 22.9414 34.1818C22.6744 34.1818 22.4433 34.2481 22.2482 34.3807C22.055 34.5114 21.9064 34.6818 21.8022 34.892C21.698 35.1023 21.646 35.3277 21.646 35.5682V35.9545C21.646 36.2841 21.7028 36.5634 21.8164 36.7926C21.9319 37.0199 22.092 37.1932 22.2965 37.3125C22.5011 37.4299 22.7388 37.4886 23.0096 37.4886C23.1857 37.4886 23.3448 37.464 23.4869 37.4148C23.6308 37.3636 23.7549 37.2879 23.859 37.1875C23.9632 37.0852 24.0437 36.9583 24.1005 36.8068L24.7482 36.9886C24.68 37.2083 24.5655 37.4015 24.4045 37.5682C24.2435 37.733 24.0446 37.8617 23.8079 37.9545C23.5711 38.0455 23.305 38.0909 23.0096 38.0909ZM26.5067 35.375V38H25.8363V33.6364H26.484V34.3182H26.5408C26.6431 34.0966 26.7984 33.9186 27.0067 33.7841C27.2151 33.6477 27.484 33.5795 27.8136 33.5795C28.109 33.5795 28.3675 33.6402 28.5891 33.7614C28.8107 33.8807 28.9831 34.0625 29.1062 34.3068C29.2293 34.5492 29.2908 34.8561 29.2908 35.2273V38H28.6204V35.2727C28.6204 34.9299 28.5314 34.6629 28.3533 34.4716C28.1753 34.2784 27.931 34.1818 27.6204 34.1818C27.4064 34.1818 27.2151 34.2282 27.0465 34.321C26.8799 34.4138 26.7482 34.5492 26.6516 34.7273C26.555 34.9053 26.5067 35.1212 26.5067 35.375ZM33.266 36.2159V33.6364H33.9364V38H33.266V37.2614H33.2205C33.1183 37.483 32.9592 37.6714 32.7433 37.8267C32.5273 37.9801 32.2546 38.0568 31.9251 38.0568C31.6523 38.0568 31.4099 37.9972 31.1978 37.8778C30.9857 37.7566 30.819 37.5748 30.6978 37.3324C30.5766 37.0881 30.516 36.7803 30.516 36.4091V33.6364H31.1864V36.3636C31.1864 36.6818 31.2754 36.9356 31.4535 37.125C31.6334 37.3144 31.8626 37.4091 32.141 37.4091C32.3076 37.4091 32.4772 37.3665 32.6495 37.2812C32.8237 37.196 32.9696 37.0653 33.087 36.8892C33.2063 36.7131 33.266 36.4886 33.266 36.2159Z" fill="#333333"/>
</svg>
