<svg width="48" height="40" viewBox="0 0 48 40" fill="none" xmlns="http://www.w3.org/2000/svg">
<path d="M18 24C17.45 24 16.9792 23.8042 16.5875 23.4125C16.1958 23.0208 16 22.55 16 22V10C16 9.45 16.1958 8.97917 16.5875 8.5875C16.9792 8.19583 17.45 8 18 8H20C20 6.9 20.3917 5.95833 21.175 5.175C21.9583 4.39167 22.9 4 24 4C25.1 4 26.0417 4.39167 26.825 5.175C27.6083 5.95833 28 6.9 28 8H30C30.55 8 31.0208 8.19583 31.4125 8.5875C31.8042 8.97917 32 9.45 32 10V22C32 22.55 31.8042 23.0208 31.4125 23.4125C31.0208 23.8042 30.55 24 30 24H18ZM18 22H30V10H28V12C28 12.2833 27.9042 12.5208 27.7125 12.7125C27.5208 12.9042 27.2833 13 27 13C26.7167 13 26.4792 12.9042 26.2875 12.7125C26.0958 12.5208 26 12.2833 26 12V10H22V12C22 12.2833 21.9042 12.5208 21.7125 12.7125C21.5208 12.9042 21.2833 13 21 13C20.7167 13 20.4792 12.9042 20.2875 12.7125C20.0958 12.5208 20 12.2833 20 12V10H18V22ZM22 8H26C26 7.45 25.8042 6.97917 25.4125 6.5875C25.0208 6.19583 24.55 6 24 6C23.45 6 22.9792 6.19583 22.5875 6.5875C22.1958 6.97917 22 7.45 22 8Z" fill="#333333"/>
<path d="M6.42614 35.0909C6.42614 35.7045 6.31534 36.2348 6.09375 36.6818C5.87216 37.1288 5.56818 37.4735 5.18182 37.7159C4.79545 37.9583 4.35417 38.0795 3.85795 38.0795C3.36174 38.0795 2.92045 37.9583 2.53409 37.7159C2.14773 37.4735 1.84375 37.1288 1.62216 36.6818C1.40057 36.2348 1.28977 35.7045 1.28977 35.0909C1.28977 34.4773 1.40057 33.947 1.62216 33.5C1.84375 33.053 2.14773 32.7083 2.53409 32.4659C2.92045 32.2235 3.36174 32.1023 3.85795 32.1023C4.35417 32.1023 4.79545 32.2235 5.18182 32.4659C5.56818 32.7083 5.87216 33.053 6.09375 33.5C6.31534 33.947 6.42614 34.4773 6.42614 35.0909ZM5.74432 35.0909C5.74432 34.5871 5.66004 34.1619 5.49148 33.8153C5.32481 33.4688 5.09848 33.2064 4.8125 33.0284C4.52841 32.8504 4.21023 32.7614 3.85795 32.7614C3.50568 32.7614 3.18655 32.8504 2.90057 33.0284C2.61648 33.2064 2.39015 33.4688 2.22159 33.8153C2.05492 34.1619 1.97159 34.5871 1.97159 35.0909C1.97159 35.5947 2.05492 36.0199 2.22159 36.3665C2.39015 36.7131 2.61648 36.9754 2.90057 37.1534C3.18655 37.3314 3.50568 37.4205 3.85795 37.4205C4.21023 37.4205 4.52841 37.3314 4.8125 37.1534C5.09848 36.9754 5.32481 36.7131 5.49148 36.3665C5.66004 36.0199 5.74432 35.5947 5.74432 35.0909ZM7.51989 38V33.6364H8.16761V34.2955H8.21307C8.29261 34.0795 8.43655 33.9044 8.64489 33.7699C8.85322 33.6354 9.08807 33.5682 9.34943 33.5682C9.39867 33.5682 9.46023 33.5691 9.53409 33.571C9.60795 33.5729 9.66383 33.5758 9.7017 33.5795V34.2614C9.67898 34.2557 9.62689 34.2472 9.54545 34.2358C9.46591 34.2225 9.38163 34.2159 9.29261 34.2159C9.08049 34.2159 8.8911 34.2604 8.72443 34.3494C8.55966 34.4366 8.42898 34.5578 8.33239 34.7131C8.23769 34.8665 8.19034 35.0417 8.19034 35.2386V38H7.51989ZM12.0114 38.0909C11.6477 38.0909 11.3267 37.9991 11.0483 37.8153C10.7699 37.6297 10.5521 37.3684 10.3949 37.0312C10.2377 36.6922 10.1591 36.2917 10.1591 35.8295C10.1591 35.3712 10.2377 34.9735 10.3949 34.6364C10.5521 34.2992 10.7708 34.0388 11.0511 33.8551C11.3314 33.6714 11.6553 33.5795 12.0227 33.5795C12.3068 33.5795 12.5313 33.6269 12.696 33.7216C12.8627 33.8144 12.9896 33.9205 13.0767 34.0398C13.1657 34.1572 13.2348 34.2538 13.2841 34.3295H13.3409V32.1818H14.0114V38H13.3636V37.3295H13.2841C13.2348 37.4091 13.1648 37.5095 13.0739 37.6307C12.983 37.75 12.8532 37.857 12.6847 37.9517C12.5161 38.0445 12.2917 38.0909 12.0114 38.0909ZM12.1023 37.4886C12.3712 37.4886 12.5985 37.4186 12.7841 37.2784C12.9697 37.1364 13.1108 36.9403 13.2074 36.6903C13.304 36.4384 13.3523 36.1477 13.3523 35.8182C13.3523 35.4924 13.3049 35.2074 13.2102 34.9631C13.1155 34.7169 12.9754 34.5256 12.7898 34.3892C12.6042 34.2509 12.375 34.1818 12.1023 34.1818C11.8182 34.1818 11.5814 34.2547 11.392 34.4006C11.2045 34.5445 11.0634 34.7405 10.9688 34.9886C10.8759 35.2348 10.8295 35.5114 10.8295 35.8182C10.8295 36.1288 10.8769 36.411 10.9716 36.6648C11.0682 36.9167 11.2102 37.1174 11.3977 37.267C11.5871 37.4148 11.822 37.4886 12.1023 37.4886ZM17.1619 38.0909C16.7415 38.0909 16.3788 37.9981 16.0739 37.8125C15.7708 37.625 15.5369 37.3636 15.3722 37.0284C15.2093 36.6913 15.1278 36.2992 15.1278 35.8523C15.1278 35.4053 15.2093 35.0114 15.3722 34.6705C15.5369 34.3277 15.7661 34.0606 16.0597 33.8693C16.3551 33.6761 16.6998 33.5795 17.0938 33.5795C17.321 33.5795 17.5455 33.6174 17.767 33.6932C17.9886 33.7689 18.1903 33.892 18.3722 34.0625C18.554 34.2311 18.6989 34.4545 18.8068 34.733C18.9148 35.0114 18.9688 35.3542 18.9688 35.7614V36.0455H15.6051V35.4659H18.2869C18.2869 35.2197 18.2377 35 18.1392 34.8068C18.0426 34.6136 17.9044 34.4612 17.7244 34.3494C17.5464 34.2377 17.3362 34.1818 17.0938 34.1818C16.8267 34.1818 16.5956 34.2481 16.4006 34.3807C16.2074 34.5114 16.0587 34.6818 15.9545 34.892C15.8504 35.1023 15.7983 35.3277 15.7983 35.5682V35.9545C15.7983 36.2841 15.8551 36.5634 15.9688 36.7926C16.0843 37.0199 16.2443 37.1932 16.4489 37.3125C16.6534 37.4299 16.8911 37.4886 17.1619 37.4886C17.3381 37.4886 17.4972 37.464 17.6392 37.4148C17.7831 37.3636 17.9072 37.2879 18.0114 37.1875C18.1155 37.0852 18.196 36.9583 18.2528 36.8068L18.9006 36.9886C18.8324 37.2083 18.7178 37.4015 18.5568 37.5682C18.3958 37.733 18.197 37.8617 17.9602 37.9545C17.7235 38.0455 17.4574 38.0909 17.1619 38.0909ZM19.9886 38V33.6364H20.6364V34.2955H20.6818C20.7614 34.0795 20.9053 33.9044 21.1136 33.7699C21.322 33.6354 21.5568 33.5682 21.8182 33.5682C21.8674 33.5682 21.929 33.5691 22.0028 33.571C22.0767 33.5729 22.1326 33.5758 22.1705 33.5795V34.2614C22.1477 34.2557 22.0956 34.2472 22.0142 34.2358C21.9347 34.2225 21.8504 34.2159 21.7614 34.2159C21.5492 34.2159 21.3598 34.2604 21.1932 34.3494C21.0284 34.4366 20.8977 34.5578 20.8011 34.7131C20.7064 34.8665 20.6591 35.0417 20.6591 35.2386V38H19.9886ZM26.9879 38.0909C26.594 38.0909 26.2483 37.9972 25.951 37.8097C25.6555 37.6222 25.4245 37.3598 25.2578 37.0227C25.093 36.6856 25.0107 36.2917 25.0107 35.8409C25.0107 35.3864 25.093 34.9896 25.2578 34.6506C25.4245 34.3116 25.6555 34.0483 25.951 33.8608C26.2483 33.6733 26.594 33.5795 26.9879 33.5795C27.3819 33.5795 27.7266 33.6733 28.022 33.8608C28.3194 34.0483 28.5504 34.3116 28.7152 34.6506C28.8819 34.9896 28.9652 35.3864 28.9652 35.8409C28.9652 36.2917 28.8819 36.6856 28.7152 37.0227C28.5504 37.3598 28.3194 37.6222 28.022 37.8097C27.7266 37.9972 27.3819 38.0909 26.9879 38.0909ZM26.9879 37.4886C27.2872 37.4886 27.5334 37.4119 27.7266 37.2585C27.9197 37.1051 28.0627 36.9034 28.1555 36.6534C28.2483 36.4034 28.2947 36.1326 28.2947 35.8409C28.2947 35.5492 28.2483 35.2775 28.1555 35.0256C28.0627 34.7737 27.9197 34.5701 27.7266 34.4148C27.5334 34.2595 27.2872 34.1818 26.9879 34.1818C26.6887 34.1818 26.4425 34.2595 26.2493 34.4148C26.0561 34.5701 25.9131 34.7737 25.8203 35.0256C25.7275 35.2775 25.6811 35.5492 25.6811 35.8409C25.6811 36.1326 25.7275 36.4034 25.8203 36.6534C25.9131 36.9034 26.0561 37.1051 26.2493 37.2585C26.4425 37.4119 26.6887 37.4886 26.9879 37.4886ZM30.6591 35.375V38H29.9886V33.6364H30.6364V34.3182H30.6932C30.7955 34.0966 30.9508 33.9186 31.1591 33.7841C31.3674 33.6477 31.6364 33.5795 31.9659 33.5795C32.2614 33.5795 32.5199 33.6402 32.7415 33.7614C32.9631 33.8807 33.1354 34.0625 33.2585 34.3068C33.3816 34.5492 33.4432 34.8561 33.4432 35.2273V38H32.7727V35.2727C32.7727 34.9299 32.6837 34.6629 32.5057 34.4716C32.3277 34.2784 32.0833 34.1818 31.7727 34.1818C31.5587 34.1818 31.3674 34.2282 31.1989 34.321C31.0322 34.4138 30.9006 34.5492 30.804 34.7273C30.7074 34.9053 30.6591 35.1212 30.6591 35.375ZM35.3388 32.1818V38H34.6683V32.1818H35.3388ZM36.5668 38V33.6364H37.2372V38H36.5668ZM36.9077 32.9091C36.777 32.9091 36.6643 32.8646 36.5696 32.7756C36.4768 32.6866 36.4304 32.5795 36.4304 32.4545C36.4304 32.3295 36.4768 32.2225 36.5696 32.1335C36.6643 32.0445 36.777 32 36.9077 32C37.0384 32 37.1501 32.0445 37.2429 32.1335C37.3376 32.2225 37.3849 32.3295 37.3849 32.4545C37.3849 32.5795 37.3376 32.6866 37.2429 32.7756C37.1501 32.8646 37.0384 32.9091 36.9077 32.9091ZM39.1357 35.375V38H38.4652V33.6364H39.1129V34.3182H39.1697C39.272 34.0966 39.4273 33.9186 39.6357 33.7841C39.844 33.6477 40.1129 33.5795 40.4425 33.5795C40.7379 33.5795 40.9964 33.6402 41.218 33.7614C41.4396 33.8807 41.612 34.0625 41.7351 34.3068C41.8582 34.5492 41.9197 34.8561 41.9197 35.2273V38H41.2493V35.2727C41.2493 34.9299 41.1603 34.6629 40.9822 34.4716C40.8042 34.2784 40.5599 34.1818 40.2493 34.1818C40.0353 34.1818 39.844 34.2282 39.6754 34.321C39.5088 34.4138 39.3771 34.5492 39.2805 34.7273C39.1839 34.9053 39.1357 35.1212 39.1357 35.375ZM44.9744 38.0909C44.554 38.0909 44.1913 37.9981 43.8864 37.8125C43.5833 37.625 43.3494 37.3636 43.1847 37.0284C43.0218 36.6913 42.9403 36.2992 42.9403 35.8523C42.9403 35.4053 43.0218 35.0114 43.1847 34.6705C43.3494 34.3277 43.5786 34.0606 43.8722 33.8693C44.1676 33.6761 44.5123 33.5795 44.9062 33.5795C45.1335 33.5795 45.358 33.6174 45.5795 33.6932C45.8011 33.7689 46.0028 33.892 46.1847 34.0625C46.3665 34.2311 46.5114 34.4545 46.6193 34.733C46.7273 35.0114 46.7812 35.3542 46.7812 35.7614V36.0455H43.4176V35.4659H46.0994C46.0994 35.2197 46.0502 35 45.9517 34.8068C45.8551 34.6136 45.7169 34.4612 45.5369 34.3494C45.3589 34.2377 45.1487 34.1818 44.9062 34.1818C44.6392 34.1818 44.4081 34.2481 44.2131 34.3807C44.0199 34.5114 43.8712 34.6818 43.767 34.892C43.6629 35.1023 43.6108 35.3277 43.6108 35.5682V35.9545C43.6108 36.2841 43.6676 36.5634 43.7812 36.7926C43.8968 37.0199 44.0568 37.1932 44.2614 37.3125C44.4659 37.4299 44.7036 37.4886 44.9744 37.4886C45.1506 37.4886 45.3097 37.464 45.4517 37.4148C45.5956 37.3636 45.7197 37.2879 45.8239 37.1875C45.928 37.0852 46.0085 36.9583 46.0653 36.8068L46.7131 36.9886C46.6449 37.2083 46.5303 37.4015 46.3693 37.5682C46.2083 37.733 46.0095 37.8617 45.7727 37.9545C45.536 38.0455 45.2699 38.0909 44.9744 38.0909Z" fill="#333333"/>
</svg>
