<svg width="48" height="40" viewBox="0 0 48 40" fill="none" xmlns="http://www.w3.org/2000/svg">
<path d="M33.025 13.05V21C33.025 21.55 32.8292 22.0208 32.4375 22.4125C32.0458 22.8042 31.575 23 31.025 23H17.025C16.475 23 16.0042 22.8042 15.6125 22.4125C15.2208 22.0208 15.025 21.55 15.025 21V13.05C14.6417 12.7 14.3458 12.25 14.1375 11.7C13.9292 11.15 13.925 10.55 14.125 9.9L15.175 6.5C15.3083 6.06667 15.5458 5.70833 15.8875 5.425C16.2292 5.14167 16.625 5 17.075 5H30.975C31.425 5 31.8167 5.1375 32.15 5.4125C32.4833 5.6875 32.725 6.05 32.875 6.5L33.925 9.9C34.125 10.55 34.1208 11.1417 33.9125 11.675C33.7042 12.2083 33.4083 12.6667 33.025 13.05ZM26.225 12C26.675 12 27.0167 11.8458 27.25 11.5375C27.4833 11.2292 27.575 10.8833 27.525 10.5L26.975 7H25.025V10.7C25.025 11.05 25.1417 11.3542 25.375 11.6125C25.6083 11.8708 25.8917 12 26.225 12ZM21.725 12C22.1083 12 22.4208 11.8708 22.6625 11.6125C22.9042 11.3542 23.025 11.05 23.025 10.7V7H21.075L20.525 10.5C20.4583 10.9 20.5458 11.25 20.7875 11.55C21.0292 11.85 21.3417 12 21.725 12ZM17.275 12C17.575 12 17.8375 11.8917 18.0625 11.675C18.2875 11.4583 18.425 11.1833 18.475 10.85L19.025 7H17.075L16.075 10.35C15.975 10.6833 16.0292 11.0417 16.2375 11.425C16.4458 11.8083 16.7917 12 17.275 12ZM30.775 12C31.2583 12 31.6083 11.8083 31.825 11.425C32.0417 11.0417 32.0917 10.6833 31.975 10.35L30.925 7H29.025L29.575 10.85C29.625 11.1833 29.7625 11.4583 29.9875 11.675C30.2125 11.8917 30.475 12 30.775 12ZM17.025 21H31.025V13.95C30.9417 13.9833 30.8875 14 30.8625 14H30.775C30.325 14 29.9292 13.925 29.5875 13.775C29.2458 13.625 28.9083 13.3833 28.575 13.05C28.275 13.35 27.9333 13.5833 27.55 13.75C27.1667 13.9167 26.7583 14 26.325 14C25.875 14 25.4542 13.9167 25.0625 13.75C24.6708 13.5833 24.325 13.35 24.025 13.05C23.7417 13.35 23.4125 13.5833 23.0375 13.75C22.6625 13.9167 22.2583 14 21.825 14C21.3417 14 20.9042 13.9167 20.5125 13.75C20.1208 13.5833 19.775 13.35 19.475 13.05C19.125 13.4 18.7792 13.6458 18.4375 13.7875C18.0958 13.9292 17.7083 14 17.275 14H17.1625C17.1208 14 17.075 13.9833 17.025 13.95V21Z" fill="#333333"/>
</svg>
